/* XPM */
static char * project_file_16_xpm[] = {
"16 16 92 2",
"  	c None",
". 	c #999CA0",
"+ 	c #B1B5BD",
"@ 	c #B7BBC1",
"# 	c #B8BCC2",
"$ 	c #B7BAC2",
"% 	c #B4B8C2",
"& 	c #AFB3C0",
"* 	c #AFB4C7",
"= 	c #9C9FA7",
"- 	c #ACB1BA",
"; 	c #FDFDFE",
"> 	c #FFFFFF",
", 	c #F6F6FF",
"' 	c #E9E9FF",
") 	c #D5D5F5",
"! 	c #BDC0CC",
"~ 	c #A4A8B4",
"{ 	c #F4F4FF",
"] 	c #E7E7FF",
"^ 	c #C1C3CB",
"/ 	c #EBEBFD",
"( 	c #A3A7B5",
"_ 	c #A6ABB2",
": 	c #EBECF8",
"< 	c #C4C9D4",
"[ 	c #C7CED8",
"} 	c #BAC0D7",
"| 	c #9AA1B1",
"1 	c #53524F",
"2 	c #FDEFEF",
"3 	c #FEFCFC",
"4 	c #F4B5B5",
"5 	c #F6BFBF",
"6 	c #A5A9B1",
"7 	c #E73737",
"8 	c #EC7979",
"9 	c #E73B3B",
"0 	c #E73E3E",
"a 	c #EF9393",
"b 	c #FCFAFB",
"c 	c #F19494",
"d 	c #EF8787",
"e 	c #FCEAEA",
"f 	c #A9ADB6",
"g 	c #E7787D",
"h 	c #E73839",
"i 	c #E75559",
"j 	c #E73C3D",
"k 	c #E7868D",
"l 	c #E73F40",
"m 	c #E74445",
"n 	c #E75A5D",
"o 	c #F2F2FF",
"p 	c #EDDCE9",
"q 	c #E74A4C",
"r 	c #ECEDFF",
"s 	c #E9E8FC",
"t 	c #E7464A",
"u 	c #E74344",
"v 	c #E8A5AD",
"w 	c #E7868F",
"x 	c #EAEBFF",
"y 	c #AAAEB6",
"z 	c #F6F7FF",
"A 	c #F5F5FF",
"B 	c #F3F3FF",
"C 	c #F1F1FF",
"D 	c #E8696C",
"E 	c #F3E2E9",
"F 	c #FDFDFF",
"G 	c #FBFBFF",
"H 	c #F9F9FF",
"I 	c #F7F7FF",
"J 	c #F19F9F",
"K 	c #E85050",
"L 	c #F8D8DA",
"M 	c #AAAEB5",
"N 	c #F9DFDF",
"O 	c #F19999",
"P 	c #FCE8E8",
"Q 	c #A9AEB5",
"R 	c #A9ADB5",
"S 	c #A5A9B0",
"T 	c #F1F1F2",
"U 	c #F3F3F3",
"V 	c #E8EAEC",
"W 	c #949598",
"X 	c #9197A1",
"Y 	c #9096A0",
"Z 	c #8F959F",
"` 	c #8E959F",
"    . + @ # $ % & * =           ",
"    - ; > > > , ' ) ! ~         ",
"    - ; > > > > { ] ^ / (       ",
"    _ ; > > > > > : < [ } |     ",
"    _ 1 > > > > ; ; > > > > _   ",
"    _ 1 2 3 4 5 ; ; > > > > _   ",
"    6 1 7 8 9 0 a b c d e > 6   ",
"    f 1 g h i i j k l m n o f   ",
"    f 1 p q r s t u n v w x f   ",
"    y 1 z A B C D m E A B C y   ",
"    y 1 F G H I J K L G H I y   ",
"    M 1 > > > F N O P > > F M   ",
"    Q 1 > > > > ; ; > > > > Q   ",
"    R 1 1 1 1 1 1 1 1 1 1 > R   ",
"    S T U U U U U U U U U V S   ",
"    W X X X Y Y Y Y Z Z Z ` W   "};
