/* XPM */
static char * project_directory_16_xpm[] = {
"16 16 92 2",
"  	c None",
". 	c #DB9633",
"+ 	c #DB9A33",
"@ 	c #DC9A32",
"# 	c #D69632",
"$ 	c #FDF7F5",
"% 	c #FDF9F5",
"& 	c #D29330",
"* 	c #FDF1E9",
"= 	c #FDF0E9",
"- 	c #B1915F",
"; 	c #D19331",
"> 	c #D29432",
", 	c #CC8F30",
"' 	c #FDE8DB",
") 	c #FDE9DB",
"! 	c #FDE7DB",
"~ 	c #C78F2F",
"{ 	c #FDDFCB",
"] 	c #CF9023",
"^ 	c #D19625",
"/ 	c #C08B2E",
"( 	c #FDD3B9",
"_ 	c #FDD7BD",
": 	c #FDD4B9",
"< 	c #FDD8BD",
"[ 	c #CD951D",
"} 	c #E8B57E",
"| 	c #FCF6F0",
"1 	c #FDFDFD",
"2 	c #FDE3C9",
"3 	c #D89D36",
"4 	c #BD882D",
"5 	c #FDCBA9",
"6 	c #D09524",
"7 	c #D19623",
"8 	c #E9B583",
"9 	c #FDCD8F",
"0 	c #FCC88A",
"a 	c #FCCA8E",
"b 	c #D39827",
"c 	c #B8852C",
"d 	c #F9BE8F",
"e 	c #CF9627",
"f 	c #FDC17B",
"g 	c #FDF7F1",
"h 	c #FDBB65",
"i 	c #FDBD6B",
"j 	c #F9B965",
"k 	c #C8921E",
"l 	c #B1802B",
"m 	c #F2B070",
"n 	c #D09728",
"o 	c #FDB055",
"p 	c #FDB14F",
"q 	c #FDB251",
"r 	c #F3AF45",
"s 	c #BF8A19",
"t 	c #AE7E2A",
"u 	c #E3A453",
"v 	c #D49926",
"w 	c #FDA93D",
"x 	c #FDAC39",
"y 	c #FDA93B",
"z 	c #E6A32E",
"A 	c #B28818",
"B 	c #A97A29",
"C 	c #D3993D",
"D 	c #D99A1F",
"E 	c #FCA12A",
"F 	c #FCA62A",
"G 	c #FCA528",
"H 	c #AD8715",
"I 	c #A47728",
"J 	c #C08C1C",
"K 	c #E1CE9F",
"L 	c #D6E0DB",
"M 	c #B19337",
"N 	c #A07728",
"O 	c #B28314",
"P 	c #EDE1C3",
"Q 	c #D0D5CD",
"R 	c #A98B23",
"S 	c #9B7327",
"T 	c #977E09",
"U 	c #C3BE9B",
"V 	c #C6C6B0",
"W 	c #C6C6AE",
"X 	c #C7C9B7",
"Y 	c #9F8313",
"Z 	c #917C09",
"` 	c #917909",
"    . + + @ . .                 ",
"  # $ % $ % % % #               ",
"& * * * = * * * - ; ; > ; ; ;   ",
", ' ' ' ' ' ) ' ) ) ) ' ) ' ! , ",
"~ { { { { { { { { ] ^ ^ ^ ^ ^ ^ ",
"/ ( ( _ ( _ : < [ } | 1 1 1 2 3 ",
"4 5 5 6 ^ ^ ^ 7 8 1 9 0 0 0 a b ",
"c d e f 1 1 1 1 g h i i i i j k ",
"l m n o p p p q p p p p q q r s ",
"t u v w x x x x x x x x x y z A ",
"B C D E F F F F F G F F G E D H ",
"I J K 1 1 1 1 1 1 1 1 1 1 L M   ",
"N O P 1 1 1 1 1 1 1 1 1 1 Q R   ",
"S T U V W W W W W W W W W X Y   ",
"  Z Z Z Z ` ` ` ` Z ` ` ` ` Z   ",
"                                "};
