/* XPM */
static char * project_window_16_xpm[] = {
"16 16 9 1",
" 	c None",
".	c #E1E3F3",
"+	c #C2C6EA",
"@	c #A4ABE2",
"#	c #5364EA",
"$	c #AFB6EC",
"%	c #A1AAEF",
"&	c #ACB3EC",
"*	c #CED2F4",
".+@@@@@@@@@@@+. ",
"+#############$ ",
"@#%    #%    #$ ",
"@#%    #%    #$ ",
"@#%    #%    #$ ",
"@#%    #%    #$ ",
"@#%    #%    #$ ",
"@#&****#&****#$ ",
"@#############$ ",
"@#%    #%    #$ ",
"@#%    #%    #$ ",
"@#%    #%    #$ ",
"@#%    #%    #$ ",
"@#&****#&****#$ ",
"+#############$ ",
".$$$$$$$$$$$$$. "};
